<?xml version="1.0" encoding="utf-8"?>
<!-- Generator: Adobe Illustrator 27.8.1, SVG Export Plug-In . SVG Version: 6.00 Build 0)  -->
<svg version="1.1" id="Layer_1" xmlns="http://www.w3.org/2000/svg" xmlns:xlink="http://www.w3.org/1999/xlink" x="0px" y="0px"
	 viewBox="0 0 1080 1080" style="enable-background:new 0 0 1080 1080;" xml:space="preserve">
<style type="text/css">
	.st0{fill:#FF997B;}
	.st1{fill:#F79391;}
	.st2{fill:#FF9985;}
	.st3{fill:#FBB0DE;}
</style>
<g>
	<path class="st0" d="M380.48,748.75c-1.18-1.23-1.77-2.75-1.77-4.57c0-2,0.64-3.55,1.91-4.64c1.27-1.09,2.77-1.64,4.5-1.64
		c1.73,0,3.21,0.55,4.44,1.64c1.23,1.09,1.84,2.64,1.84,4.64c0,1.82-0.61,3.34-1.84,4.57c-1.23,1.23-2.75,1.84-4.57,1.84
		C383.16,750.59,381.66,749.98,380.48,748.75z M382.19,839.78c-0.77-0.77-1.16-1.75-1.16-2.93v-66.46c0-1.27,0.39-2.27,1.16-3
		c0.77-0.73,1.75-1.09,2.93-1.09c1.27,0,2.27,0.37,3,1.09c0.73,0.73,1.09,1.73,1.09,3v66.46c0,1.18-0.36,2.16-1.09,2.93
		c-0.73,0.77-1.73,1.16-3,1.16C383.94,840.94,382.96,840.55,382.19,839.78z"/>
	<path class="st0" d="M468.44,769.43c5.23,2.73,9.33,6.71,12.28,11.94c2.96,5.23,4.44,11.49,4.44,18.77v36.71
		c0,1.18-0.39,2.16-1.16,2.93c-0.77,0.77-1.75,1.16-2.93,1.16c-1.18,0-2.16-0.39-2.93-1.16c-0.77-0.77-1.16-1.75-1.16-2.93v-36.71
		c0-8.64-2.44-15.24-7.3-19.79c-4.87-4.55-11.21-6.82-19.04-6.82c-4.82,0-9.21,0.93-13.17,2.8c-3.96,1.87-7.08,4.46-9.35,7.78
		c-2.28,3.32-3.41,6.98-3.41,10.99v41.76c0,1.18-0.36,2.16-1.09,2.93c-0.73,0.77-1.73,1.16-3,1.16c-1.18,0-2.16-0.39-2.93-1.16
		c-0.77-0.77-1.16-1.75-1.16-2.93v-98.4c0-1.27,0.39-2.27,1.16-3c0.77-0.73,1.75-1.09,2.93-1.09c1.27,0,2.27,0.37,3,1.09
		c0.73,0.73,1.09,1.73,1.09,3v39.03c3.09-3.82,6.87-6.8,11.33-8.94c4.46-2.14,9.33-3.21,14.6-3.21
		C457.27,765.33,463.2,766.7,468.44,769.43z"/>
	<path class="st0" d="M601.7,769.43c4.28,2.73,7.6,6.53,9.96,11.4c2.37,4.87,3.55,10.4,3.55,16.58v39.44c0,1.18-0.36,2.16-1.09,2.93
		c-0.73,0.77-1.73,1.16-3,1.16c-1.18,0-2.16-0.39-2.93-1.16c-0.77-0.77-1.16-1.75-1.16-2.93v-39.44c0-7-1.87-12.74-5.6-17.2
		c-3.73-4.46-8.51-6.69-14.33-6.69c-6.37,0-11.51,2.09-15.42,6.28c-3.91,4.19-5.78,9.74-5.6,16.65v0.96v39.44
		c0,1.18-0.36,2.16-1.09,2.93c-0.73,0.77-1.73,1.16-3,1.16c-1.18,0-2.16-0.39-2.93-1.16c-0.77-0.77-1.16-1.75-1.16-2.93v-39.44
		c0-7-1.87-12.74-5.6-17.2c-3.73-4.46-8.51-6.69-14.33-6.69c-6.28,0-11.42,2-15.42,6c-4,4-6,9.19-6,15.56v41.76
		c0,1.18-0.36,2.16-1.09,2.93c-0.73,0.77-1.73,1.16-3,1.16c-1.18,0-2.16-0.39-2.93-1.16c-0.77-0.77-1.16-1.75-1.16-2.93v-66.46
		c0-1.27,0.39-2.27,1.16-3c0.77-0.73,1.75-1.09,2.93-1.09c1.27,0,2.27,0.37,3,1.09c0.73,0.73,1.09,1.73,1.09,3v5.32
		c2.55-3.28,5.69-5.82,9.42-7.64c3.73-1.82,7.73-2.73,12.01-2.73c5.27,0,10.01,1.3,14.19,3.89c4.18,2.59,7.51,6.16,9.96,10.71
		c2.46-4.55,5.87-8.12,10.24-10.71s9.28-3.89,14.74-3.89C592.56,765.33,597.42,766.7,601.7,769.43z"/>
	<path class="st0" d="M721.04,790.17c0.77,0.73,1.16,1.68,1.16,2.87v34.66c0,0.64-0.05,1.16-0.14,1.57
		c-0.09,0.41-0.36,0.84-0.82,1.3c-7.83,7.83-19.02,11.74-33.57,11.74c-9.55,0-18.42-2.48-26.61-7.44
		c-8.19-4.96-14.69-11.64-19.52-20.06c-4.82-8.41-7.23-17.49-7.23-27.23c0-9.73,2.39-18.79,7.17-27.16
		c4.78-8.37,11.24-15.03,19.38-19.99c8.14-4.96,17.08-7.44,26.82-7.44c12.74,0,23.97,4.05,33.71,12.15
		c0.82,0.64,1.23,1.55,1.23,2.73c0,1.09-0.36,2.07-1.09,2.93c-0.73,0.87-1.73,1.3-3,1.3c-1,0-2.14-0.55-3.41-1.64
		c-6.92-6.19-16.06-9.28-27.43-9.28c-8.01,0-15.49,2.14-22.45,6.41c-6.96,4.28-12.49,9.99-16.58,17.13
		c-4.09,7.14-6.14,14.76-6.14,22.86c0,8.37,2.02,16.13,6.07,23.27c4.05,7.14,9.55,12.81,16.51,16.99
		c6.96,4.19,14.49,6.28,22.59,6.28c9.92,0,18.7-2.82,26.34-8.46v-29.21h-22.93c-1.18,0-2.16-0.36-2.93-1.09
		c-0.77-0.73-1.16-1.64-1.16-2.73c0-1,0.39-1.84,1.16-2.52c0.77-0.68,1.75-1.02,2.93-1.02h27.02
		C719.29,789.08,720.27,789.44,721.04,790.17z"/>
</g>
<g>
	<path class="st1" d="M492.59,872.46c0.4,0.42,0.6,0.96,0.6,1.61v53.95c0,0.65-0.2,1.19-0.6,1.61c-0.4,0.42-0.92,0.64-1.57,0.64
		c-0.65,0-1.2-0.21-1.65-0.64c-0.45-0.42-0.67-0.96-0.67-1.61v-45.87l-22.75,46.32c-0.35,0.7-1,1.05-1.95,1.05
		c-0.9,0-1.6-0.47-2.1-1.42l-22.67-45.27v45.19c0,0.65-0.21,1.19-0.64,1.61c-0.42,0.42-0.96,0.64-1.61,0.64
		c-0.65,0-1.19-0.21-1.61-0.64c-0.42-0.42-0.64-0.96-0.64-1.61v-53.95c0-0.65,0.21-1.18,0.64-1.61c0.42-0.42,0.96-0.64,1.61-0.64
		c1,0,1.67,0.37,2.02,1.12l25.14,49.68L489,872.95c0.45-0.75,1.12-1.12,2.02-1.12C491.67,871.83,492.19,872.04,492.59,872.46z"/>
	<path class="st1" d="M534.15,891.54c2.87,1.72,5.1,4.1,6.7,7.15c1.6,3.04,2.39,6.51,2.39,10.4c0,0.65-0.2,1.16-0.6,1.53
		c-0.4,0.37-0.92,0.56-1.57,0.56h-31.35c0.15,2.94,0.92,5.57,2.32,7.89c1.4,2.32,3.27,4.13,5.61,5.42c2.34,1.3,4.96,1.95,7.86,1.95
		c1.95,0,3.9-0.34,5.87-1.01c1.97-0.67,3.53-1.56,4.68-2.66c0.5-0.4,1.02-0.6,1.57-0.6c0.55,0,1,0.15,1.35,0.45
		c0.55,0.45,0.82,0.97,0.82,1.57c0,0.5-0.22,0.97-0.67,1.42c-1.6,1.45-3.68,2.64-6.25,3.59c-2.57,0.95-5.03,1.42-7.37,1.42
		c-3.94,0-7.45-0.88-10.51-2.66c-3.07-1.77-5.48-4.24-7.22-7.41c-1.75-3.17-2.62-6.75-2.62-10.74c0-4.04,0.81-7.64,2.43-10.81
		c1.62-3.17,3.89-5.64,6.81-7.41c2.92-1.77,6.25-2.66,9.99-2.66C528.03,888.96,531.28,889.82,534.15,891.54z M514.55,897.04
		c-2.67,2.59-4.25,6.01-4.75,10.25h29.11c-0.35-4.24-1.85-7.66-4.49-10.25c-2.65-2.59-5.99-3.89-10.03-3.89
		C520.5,893.15,517.22,894.45,514.55,897.04z"/>
	<path class="st1" d="M590.46,872.42c0.4,0.4,0.6,0.95,0.6,1.65v35.99v0.15c-0.05,3.84-1,7.33-2.84,10.48s-4.35,5.6-7.52,7.37
		c-3.17,1.77-6.67,2.66-10.51,2.66c-3.94,0-7.51-0.91-10.7-2.73c-3.19-1.82-5.7-4.33-7.52-7.52c-1.82-3.19-2.73-6.76-2.73-10.7
		c0-3.89,0.91-7.43,2.73-10.62c1.82-3.19,4.33-5.7,7.52-7.52c3.19-1.82,6.76-2.73,10.7-2.73c3.54,0,6.75,0.76,9.62,2.28
		c2.87,1.52,5.12,3.6,6.77,6.25v-23.35c0-0.7,0.21-1.25,0.64-1.65c0.42-0.4,0.96-0.6,1.61-0.6
		C589.51,871.83,590.06,872.03,590.46,872.42z M578.56,924.32c2.49-1.47,4.45-3.48,5.87-6.02s2.13-5.39,2.13-8.53
		s-0.71-5.99-2.13-8.53s-3.38-4.54-5.87-5.99c-2.49-1.45-5.29-2.17-8.38-2.17c-3.09,0-5.89,0.72-8.38,2.17
		c-2.49,1.45-4.46,3.44-5.91,5.99c-1.45,2.54-2.17,5.39-2.17,8.53s0.72,5.99,2.17,8.53c1.45,2.54,3.42,4.55,5.91,6.02
		c2.49,1.47,5.29,2.21,8.38,2.21C573.27,926.52,576.07,925.79,578.56,924.32z"/>
	<path class="st1" d="M605.72,879.72c-0.65-0.67-0.97-1.51-0.97-2.51c0-1.1,0.35-1.95,1.05-2.54c0.7-0.6,1.52-0.9,2.47-0.9
		c0.95,0,1.76,0.3,2.43,0.9s1.01,1.45,1.01,2.54c0,1-0.34,1.83-1.01,2.51s-1.51,1.01-2.51,1.01
		C607.19,880.73,606.37,880.39,605.72,879.72z M606.66,929.63c-0.42-0.42-0.64-0.96-0.64-1.61v-36.44c0-0.7,0.21-1.25,0.64-1.65
		c0.42-0.4,0.96-0.6,1.61-0.6c0.7,0,1.25,0.2,1.65,0.6s0.6,0.95,0.6,1.65v36.44c0,0.65-0.2,1.19-0.6,1.61s-0.95,0.64-1.65,0.64
		C607.62,930.26,607.08,930.05,606.66,929.63z"/>
	<path class="st1" d="M654.81,891.62c3.19,1.82,5.7,4.33,7.52,7.52c1.82,3.19,2.73,6.76,2.73,10.7v18.18c0,0.65-0.2,1.19-0.6,1.61
		c-0.4,0.42-0.95,0.64-1.65,0.64c-0.65,0-1.19-0.21-1.61-0.64c-0.42-0.42-0.64-0.96-0.64-1.61v-5.84c-1.65,2.64-3.9,4.73-6.77,6.25
		c-2.87,1.52-6.07,2.28-9.62,2.28c-3.94,0-7.51-0.91-10.7-2.73c-3.19-1.82-5.7-4.33-7.52-7.52c-1.82-3.19-2.73-6.73-2.73-10.62
		c0-3.94,0.91-7.51,2.73-10.7c1.82-3.19,4.33-5.7,7.52-7.52c3.19-1.82,6.76-2.73,10.7-2.73
		C648.07,888.89,651.62,889.8,654.81,891.62z M652.56,924.35c2.49-1.45,4.45-3.44,5.87-5.99s2.13-5.39,2.13-8.53
		s-0.71-5.99-2.13-8.53s-3.38-4.55-5.87-6.02c-2.49-1.47-5.29-2.21-8.38-2.21c-3.09,0-5.89,0.74-8.38,2.21
		c-2.49,1.47-4.46,3.48-5.91,6.02c-1.45,2.54-2.17,5.39-2.17,8.53s0.72,5.99,2.17,8.53c1.45,2.54,3.42,4.54,5.91,5.99
		c2.49,1.45,5.29,2.17,8.38,2.17C647.28,926.52,650.07,925.8,652.56,924.35z"/>
</g>
<g>
	<path class="st2" d="M732.98,547.57c0,23.74,5.43,47.09,16.29,70.06c11.48,24.36,24.52,37.47,39.1,39.33
		c9.78,1.4,14.66,5.12,14.66,11.17c0,4.5-5.97,6.75-17.92,6.75H654.78c-1.71,0-3.26,0.47-4.66,1.4c-9.78,0-14.66-2.71-14.66-8.15
		c0-6.05,5.12-9.78,15.36-11.17c20.64-2.48,37.09-17.14,49.34-43.99c9.93-21.72,14.9-44.38,14.9-67.96V385.35l-89.61,242.06
		c-4.34,7.6-7.83,11.4-10.47,11.4c-3.88,0-6.59-3.8-8.15-11.4c-7.6-19.7-17.22-39.25-28.86-58.65
		c-16.14-26.69-31.34-44.53-45.62-53.53c-9-5.59-13.5-10.01-13.5-13.27c0-1.24,3.42-4.23,10.24-8.96
		c6.83-4.73,10.24-9.27,10.24-13.62l-47.71-108.69v208.08c0,16.29,0.62,29.48,1.86,39.57c3.42,26.69,12.96,40.03,28.63,40.03
		c0.93-0.93,1.79-1.4,2.56-1.4c7.6,0,11.4,3.11,11.4,9.31c0,5.74-5.04,8.61-15.13,8.61H315.89c-7.14,0-10.71-2.71-10.71-8.15
		c0-6.52,5.12-9.78,15.36-9.78c17.38,0,26.07-13.58,26.07-40.73V411.42c0-22.81-2.17-37.39-6.52-43.76
		c-3.57-5.12-11.64-7.68-24.21-7.68c-10.24,0-15.36-3.1-15.36-9.31c0-6.2,6.67-9.31,20.02-9.31h148.73
		c12.88,0,22.66,4.89,29.33,14.66l52.14,108.23c2.17-6.52,7.22-19.39,15.13-38.64c10.86-26.38,17.15-46.86,18.85-61.45
		c0-2.17-0.97-5-2.91-8.5c-1.94-3.49-2.91-5.7-2.91-6.63c0-5.12,9.31-7.68,27.93-7.68h152.22c11.02,0,16.53,3.8,16.53,11.4
		c0,4.81-4.42,7.21-13.27,7.21c-19.55,0-29.33,14.82-29.33,44.46V547.57z"/>
</g>
<circle class="st3" cx="405.64" cy="213.59" r="105.11"/>
<g>
</g>
<g>
</g>
<g>
</g>
<g>
</g>
<g>
</g>
</svg>
